# xmcd
#
# Track frame offsets:
# 150
# 16936
# 38391
# 70077
# 100821
# 123710
# 148527
# 167589
# 190105
# 225506
# 251055
# 298269
#
# Disc length: 4321 seconds
#
#
# Revision: 0
# Processed by: cddbd v1.5.2PL0 Copyright (c) Steve Scherf et al.
# Submitted via: FreeRIP 2.944 
#
DISCID=a010df0c
DTITLE=Luciano Boca and Banda Bourdon - Luciano Boca and Banda Live
DYEAR=2009
DGENRE=Blues
TTITLE0=Evil
TTITLE1=Sugar Sweet
TTITLE2=Baby What You Want Me To Do
TTITLE3=Keep It To Yourself
TTITLE4=Don't Go No Futher
TTITLE5=Don't Start Me Talkin'
TTITLE6=Young Fashioned Ways
TTITLE7=Hucklebuck
TTITLE8=Simca Chambord
TTITLE9=I'm Standin'At Your Front Door
TTITLE10=Babe Please Leave Me Alone
TTITLE11=No Name Track
EXTD=Poços de Caldas Nov 2009
EXTT0=
EXTT1=
EXTT2=
EXTT3=
EXTT4=
EXTT5=
EXTT6=
EXTT7=
EXTT8=
EXTT9=
EXTT10=
EXTT11=
PLAYORDER=
